<svg width="1024" height="1024" viewBox="0 0 1024 1024" fill="none" xmlns="http://www.w3.org/2000/svg">
  <defs>
    <radialGradient id="g1" cx="0" cy="0" r="1" gradientUnits="userSpaceOnUse" gradientTransform="translate(280 240) rotate(38) scale(820)">
      <stop offset="0" stop-color="#1DB7A0" stop-opacity="0.30"/>
      <stop offset="1" stop-color="#1DB7A0" stop-opacity="0"/>
    </radialGradient>
    <radialGradient id="g2" cx="0" cy="0" r="1" gradientUnits="userSpaceOnUse" gradientTransform="translate(790 170) rotate(140) scale(760)">
      <stop offset="0" stop-color="#295B94" stop-opacity="0.40"/>
      <stop offset="1" stop-color="#295B94" stop-opacity="0"/>
    </radialGradient>
    <linearGradient id="panel" x1="160" y1="140" x2="900" y2="940" gradientUnits="userSpaceOnUse">
      <stop offset="0" stop-color="#0D1B2E"/>
      <stop offset="1" stop-color="#112640"/>
    </linearGradient>
    <linearGradient id="card" x1="272" y1="260" x2="760" y2="720" gradientUnits="userSpaceOnUse">
      <stop offset="0" stop-color="#173452"/>
      <stop offset="1" stop-color="#122A43"/>
    </linearGradient>
    <linearGradient id="fold" x1="680" y1="260" x2="760" y2="344" gradientUnits="userSpaceOnUse">
      <stop offset="0" stop-color="#78E6C6" stop-opacity="0.85"/>
      <stop offset="1" stop-color="#1DB7A0" stop-opacity="0.95"/>
    </linearGradient>
    <filter id="shadow" x="80" y="80" width="864" height="864" filterUnits="userSpaceOnUse" color-interpolation-filters="sRGB">
      <feDropShadow dx="0" dy="20" stdDeviation="24" flood-color="#000" flood-opacity="0.45"/>
    </filter>
  </defs>

  <rect width="1024" height="1024" fill="#07111F"/>
  <circle cx="300" cy="240" r="430" fill="url(#g1)"/>
  <circle cx="810" cy="170" r="390" fill="url(#g2)"/>

  <g filter="url(#shadow)">
    <rect x="120" y="120" width="784" height="784" rx="112" fill="url(#panel)" stroke="rgba(132,168,223,0.20)" stroke-width="3"/>

    <circle cx="512" cy="512" r="340" stroke="#78E6C6" stroke-opacity="0.22" stroke-width="10"/>

    <rect x="250" y="260" width="510" height="460" rx="58" fill="url(#card)" stroke="rgba(132,168,223,0.34)" stroke-width="3"/>

    <path d="M676 260H760V345L676 260Z" fill="url(#fold)"/>

    <rect x="314" y="366" width="353" height="14" rx="7" fill="#95A8C8" fill-opacity="0.82"/>
    <rect x="314" y="431" width="330" height="14" rx="7" fill="#95A8C8" fill-opacity="0.72"/>
    <rect x="314" y="496" width="292" height="14" rx="7" fill="#95A8C8" fill-opacity="0.62"/>

    <rect x="314" y="560" width="98" height="98" rx="24" fill="#1DB7A0"/>
    <path d="M337 608L364 635L392 589" stroke="#07111F" stroke-width="12" stroke-linecap="round" stroke-linejoin="round"/>

    <rect x="434" y="588" width="232" height="14" rx="7" fill="#78E6C6" fill-opacity="0.92"/>
    <rect x="434" y="622" width="170" height="14" rx="7" fill="#78E6C6" fill-opacity="0.62"/>
  </g>
</svg>
